<svg version="1.1"
      xmlns="http://www.w3.org/2000/svg"
      xmlns:xlink="http://www.w3.org/1999/xlink"  id="snapshot-70213" width="250" height="250" viewBox="0 0 250 250"><desc>This image was made on Patterninja.com</desc><defs>
<!-- image 61935 -->
<g id="transformed-61935" data-image="61935" transform="translate(-29.21, 213.6) rotate(0, 30, 30)"><g><svg version="1.1" width="60px" height="60px" viewBox="0 0 60 60"><g id="original-61935"><svg xmlns="http://www.w3.org/2000/svg" viewBox="0 0 512 512" xmlns:xlink="http://www.w3.org/1999/xlink" version="1.1" preserveAspectRatio="xMidYMid meet">
  <path d="M186.826 85.343a7.497 7.497 0 0 0 6.603-3.935l6.504-12.035a7.498 7.498 0 1 0-13.192-7.13l-6.504 12.035a7.497 7.497 0 0 0 3.031 10.161 7.455 7.455 0 0 0 3.558.904z" fill="rgba(0, 0, 0, 1)" stroke="none"/>
  <path d="M263.408 78.666v-13.68a7.498 7.498 0 0 0-14.996 0v13.68a7.498 7.498 0 0 0 14.996 0z" fill="rgba(0, 0, 0, 1)" stroke="none"/>
  <path d="M325.175 85.242a7.498 7.498 0 0 0 6.479-11.261l-6.863-11.834a7.499 7.499 0 0 0-12.972 7.524l6.863 11.834a7.497 7.497 0 0 0 6.493 3.737z" fill="rgba(0, 0, 0, 1)" stroke="none"/>
  <path d="M512 231.606V225c0-14.005-7.054-26.388-17.791-33.8a35.838 35.838 0 0 0 6.756-7.203c6.651-9.406 8.322-21.521 4.471-32.406-9.3-26.29-28.628-64.149-67.893-95.215C392.27 20.558 331.227 1.844 256.108.757a7.849 7.849 0 0 0-.217 0c-33.951.491-65.402 4.645-93.479 12.346a7.499 7.499 0 0 0 3.966 14.462c26.826-7.358 56.978-11.332 89.621-11.812 162.214 2.39 217.053 89.26 235.298 140.839 2.263 6.396 1.323 13.229-2.578 18.748-3.868 5.471-9.934 8.609-16.642 8.609H39.919c-6.733 0-12.831-3.156-16.728-8.66-3.851-5.437-4.797-12.142-2.597-18.394 13.301-37.796 43.846-89.012 113.825-118.36a7.497 7.497 0 1 0-5.799-13.829C94.546 38.996 66.034 59.642 43.878 86.07c-16.303 19.445-28.896 41.599-37.429 65.847-3.836 10.902-2.195 22.58 4.505 32.039a35.4 35.4 0 0 0 6.855 7.232C7.061 198.599 0 210.988 0 225v6.606c0 19.799 14.089 36.368 32.767 40.211l-.15 44.776C14.015 320.494 0 337.021 0 356.765v6.606c0 19.788 14.074 36.349 32.737 40.204-.503 7.891-.245 20.697 4.305 34.945 12.263 38.4 45.474 56.688 71.174 65.267 14.821 4.947 30.649 7.456 47.044 7.456h201.481c16.395 0 32.222-2.509 47.043-7.456 25.701-8.58 58.912-26.867 71.174-65.267 4.55-14.247 4.808-27.054 4.305-34.945C497.926 399.721 512 383.159 512 363.371v-6.606c0-19.797-14.091-36.352-32.767-40.194v-44.754C497.911 267.975 512 251.405 512 231.606zM14.996 363.371v-6.606c0-11.394 7.361-21.081 17.57-24.611l-.015 4.419c0 10.643 5.969 20.075 15.576 24.616 9.663 4.567 20.811 3.177 29.09-3.627 3.873-3.183 8.588-6.128 16.792-6.128.863 0 1.676.035 2.469.084v37.909H41.051c-14.367 0-26.055-11.689-26.055-26.056zm298.792-58.651h150.449v31.856c0 4.857-2.613 8.991-6.988 11.058-4.432 2.094-9.351 1.476-13.16-1.654-5.406-4.443-13.283-9.543-26.321-9.543-16.099 0-24.353 6.538-31.635 12.307-6.394 5.065-11.445 9.065-22.325 9.065-10.881 0-15.931-4-22.325-9.065-7.282-5.768-15.536-12.307-31.636-12.307s-24.714 6.824-31.636 12.307c-6.394 5.065-11.444 9.065-22.323 9.065-10.88 0-15.93-4-22.323-9.065-6.921-5.483-15.536-12.307-31.635-12.307-16.1 0-24.353 6.538-31.636 12.307-4.558 3.611-8.451 6.667-14.245 8.129v-42.219c0-5.478 4.456-9.934 9.934-9.934h112.646a7.498 7.498 0 0 0 0-14.996H165.982c-13.747 0-24.93 11.183-24.93 24.93v92.341c0 8.155-6.634 14.79-14.789 14.79s-14.789-6.635-14.789-14.79v-92.341c0-13.747-11.184-24.93-24.93-24.93H47.763v-17.066h416.474v17.066H313.788a7.498 7.498 0 0 0 0 14.996zm-227.245 0c5.478 0 9.935 4.456 9.935 9.934V336.5a53.28 53.28 0 0 0-2.469-.063c-13.034 0-20.909 5.097-26.313 9.538-3.81 3.13-8.729 3.749-13.163 1.654-4.375-2.067-6.987-6.201-6.987-11.057V304.72zm374.13 129.238c-8.308 26.017-29.046 44.725-61.638 55.604-13.287 4.436-27.517 6.685-42.295 6.685H155.26c-14.778 0-29.008-2.249-42.295-6.685-63.845-21.312-66.519-68.39-65.308-85.14h48.822v2.572c0 16.424 13.361 29.786 29.785 29.786s29.785-13.361 29.785-29.786v-2.572h308.256c.423 6.405.271 17.313-3.632 29.536zm36.331-77.193v6.606c0 14.367-11.689 26.056-26.056 26.056h-314.9v-17.248c10.995-1.754 17.607-6.968 23.556-11.68 6.394-5.065 11.445-9.065 22.325-9.065s15.93 4 22.323 9.065c6.922 5.483 15.536 12.307 31.635 12.307s24.353-6.538 31.635-12.307c6.394-5.065 11.444-9.065 22.324-9.065 10.881 0 15.931 4 22.325 9.065 7.282 5.768 15.536 12.307 31.636 12.307s24.354-6.538 31.636-12.307c6.394-5.065 11.444-9.065 22.324-9.065 8.207 0 12.924 2.947 16.799 6.133 8.278 6.803 19.425 8.194 29.089 3.627 9.608-4.54 15.577-13.973 15.577-24.617v-4.508c10.318 3.469 17.772 13.225 17.772 24.696zm-26.055-99.103H41.051c-14.367 0-26.056-11.689-26.056-26.056V225c0-14.367 11.689-26.056 26.056-26.056h429.897c14.367 0 26.056 11.689 26.056 26.056v6.606c0 14.367-11.688 26.056-26.055 26.056z" fill="rgba(0, 0, 0, 1)" stroke="none"/>
</svg>
</g></svg></g></g>
<!-- /image 61935 -->

<!-- image 21976 -->
<g id="transformed-21976" data-image="21976" transform="translate(37.379999999999995, 93.22) rotate(0, 30, 30)"><g><svg version="1.1" width="60px" height="60px" viewBox="0 0 60 60"><g id="original-21976"><svg xmlns="http://www.w3.org/2000/svg" viewBox="0 0 417.465 417.465" xmlns:xlink="http://www.w3.org/1999/xlink" version="1.1" preserveAspectRatio="xMidYMid meet">
  <path d="M75.867 96.084a6.824 6.824 0 0 0-9.513-1.633c-15.037 10.627-22.984 23.18-22.984 36.294a6.826 6.826 0 0 0 6.827 6.827 6.825 6.825 0 0 0 6.827-6.828c0-10.726 9.359-19.593 17.21-25.146a6.824 6.824 0 0 0 1.633-9.514z" fill="rgba(0, 0, 0, 1)" stroke="none"/>
  <path d="M262.897 67.926a312.172 312.172 0 0 0-17.094-2.647c-3.751-.447-7.158 2.179-7.634 5.914a6.83 6.83 0 0 0 5.914 7.634c5.523.7 11.023 1.553 16.347 2.526a6.826 6.826 0 0 0 7.948-5.48 6.825 6.825 0 0 0-5.481-7.947z" fill="rgba(0, 0, 0, 1)" stroke="none"/>
  <path d="M343.566 101.972a6.824 6.824 0 0 0-9.653.147 6.824 6.824 0 0 0 .147 9.653c6.427 6.233 9.684 12.612 9.684 18.973 0 3.773 3.057 6.827 6.827 6.827s6.827-3.053 6.827-6.827c-.001-10.192-4.655-19.873-13.832-28.773z" fill="rgba(0, 0, 0, 1)" stroke="none"/>
  <path d="M79.221 28.345h-8.544a6.825 6.825 0 0 0-6.827 6.827v95.573c0 3.773 3.057 6.827 6.827 6.827s6.827-3.053 6.827-6.827V41.998h1.717c3.77 0 6.827-3.053 6.827-6.827s-3.057-6.826-6.827-6.826z" fill="rgba(0, 0, 0, 1)" stroke="none"/>
  <path d="M145.108 110.758L117.064 6.098c-.976-3.647-4.705-5.82-8.359-4.826l-32.969 8.834a6.82 6.82 0 0 0-4.826 8.36l36.925 137.807a6.82 6.82 0 0 0 8.359 4.824 6.82 6.82 0 0 0 4.826-8.359L85.863 21.523l19.784-5.299 26.276 98.067a6.806 6.806 0 0 0 8.359 4.826 6.822 6.822 0 0 0 4.826-8.359z" fill="rgba(0, 0, 0, 1)" stroke="none"/>
  <path d="M162.861 48.825h-23.917a6.825 6.825 0 0 0-6.827 6.827v116.9c0 3.773 3.057 6.827 6.827 6.827s6.827-3.053 6.827-6.827V62.478h17.091c3.77 0 6.827-3.053 6.827-6.827s-3.058-6.826-6.828-6.826z" fill="rgba(0, 0, 0, 1)" stroke="none"/>
  <path d="M200.384 21.518H166.25a6.825 6.825 0 0 0-6.827 6.827v153.361a6.825 6.825 0 0 0 5.364 6.666c11.539 2.533 23.513 3.813 35.596 3.813a6.825 6.825 0 0 0 6.827-6.827V28.345a6.824 6.824 0 0 0-6.826-6.827zm-6.827 156.867a154.566 154.566 0 0 1-20.48-2.273V35.171h20.48v143.214z" fill="rgba(0, 0, 0, 1)" stroke="none"/>
  <path d="M241.344 7.865H207.21a6.825 6.825 0 0 0-6.827 6.827v150.2c0 3.773 3.057 6.827 6.827 6.827s6.827-3.053 6.827-6.827V21.518h20.48v84.14c0 3.773 3.057 6.827 6.827 6.827s6.827-3.053 6.827-6.827V14.691a6.825 6.825 0 0 0-6.827-6.826z" fill="rgba(0, 0, 0, 1)" stroke="none"/>
  <path d="M154.548 171.437a108.017 108.017 0 0 1-6.924-2.539c-3.497-1.447-7.474.246-8.897 3.739a6.802 6.802 0 0 0-.51 2.581 6.832 6.832 0 0 0 4.253 6.32 118.19 118.19 0 0 0 7.781 2.86c.71.241 1.43.346 2.14.346a6.83 6.83 0 0 0 2.157-13.307z" fill="rgba(0, 0, 0, 1)" stroke="none"/>
  <path d="M196.322 178.41c-14.667-.365-29.073-2.767-41.67-6.932-3.574-1.179-7.441.753-8.624 4.333a6.825 6.825 0 0 0 4.33 8.627c14.01 4.647 29.362 7.214 45.617 7.627h.177a6.824 6.824 0 0 0 6.818-6.654 6.828 6.828 0 0 0-6.648-7.001z" fill="rgba(0, 0, 0, 1)" stroke="none"/>
  <path d="M247.95 178.066l-2.336-6.414c-.87.287-1.734.58-2.623.846h-.007-.007a6.826 6.826 0 0 0-4.574 8.499 6.826 6.826 0 0 0 8.501 4.58c1.014-.305 1.993-.633 2.976-.959l.063-.02-1.993-6.532z" fill="rgba(0, 0, 0, 1)" stroke="none"/>
  <path d="M269.367 168.478l-4.081-5.513-1.447.853a6.813 6.813 0 0 0-3.49 5.966c0 1.126.28 2.266.87 3.319a6.818 6.818 0 0 0 9.293 2.62l1.811-1.06-2.956-6.185z" fill="rgba(0, 0, 0, 1)" stroke="none"/>
  <path d="M261.36 172.957c-1.41-3.487-5.366-5.193-8.866-3.787l-2.816 1.073a6.831 6.831 0 0 0-3.987 8.793 6.826 6.826 0 0 0 6.39 4.427c.799 0 1.609-.14 2.403-.432l.647-.247c.833-.314 1.659-.621 2.473-.954a6.821 6.821 0 0 0 3.756-8.873z" fill="rgba(0, 0, 0, 1)" stroke="none"/>
  <path d="M267.823 169.699a6.82 6.82 0 0 0-9.1-3.221l-2.084.927a6.84 6.84 0 0 0-4.047 6.233c0 .934.195 1.881.597 2.78a6.827 6.827 0 0 0 9.018 3.455l2.396-1.073a6.821 6.821 0 0 0 3.22-9.101z" fill="rgba(0, 0, 0, 1)" stroke="none"/>
  <path d="M123.731 154.357c-.012-.012-.022-.026-.036-.039a37.65 37.65 0 0 1-2.717-2.627c-.003-.007-.003-.007-.007-.007-.003-.007-.007-.007-.007-.007a6.813 6.813 0 0 0-9.646-.34 6.82 6.82 0 0 0-.346 9.639c.003.007.007.007.007.007.003.007.003.007.007.007.442.48.906.947 1.389 1.42a95.095 95.095 0 0 0 2.097 1.973 6.725 6.725 0 0 0 4.584 1.801c1.84 0 3.674-.746 5.024-2.207 2.54-2.755 2.361-7.054-.349-9.62z" fill="rgba(0, 0, 0, 1)" stroke="none"/>
  <path d="M147.257 168.744h-.003c-.007-.007-.01-.007-.017-.007a100.491 100.491 0 0 1-6.123-2.753 6.808 6.808 0 0 0-9.143 3.099 6.82 6.82 0 0 0 3.097 9.141 111.574 111.574 0 0 0 6.973 3.133 6.797 6.797 0 0 0 2.603.521 6.825 6.825 0 0 0 2.613-13.134z" fill="rgba(0, 0, 0, 1)" stroke="none"/>
  <path d="M128.605 158.398c-1.21-.899-2.408-1.813-3.511-2.766-.02-.012-.036-.032-.056-.046-2.854-2.466-7.161-2.173-9.631.674a6.831 6.831 0 0 0 .677 9.632c1.369 1.193 2.855 2.333 4.372 3.459a6.823 6.823 0 0 0 9.548-1.406 6.821 6.821 0 0 0-1.399-9.547z" fill="rgba(0, 0, 0, 1)" stroke="none"/>
  <path d="M134.206 162.187c-.739-.461-1.473-.913-2.19-1.374a70.322 70.322 0 0 1-2.273-1.533c-3.067-2.188-7.33-1.454-9.51 1.606a6.827 6.827 0 0 0 1.594 9.513c.795.572 1.62 1.126 2.459 1.673.913.592 1.843 1.179 2.79 1.753a6.77 6.77 0 0 0 3.546 1 6.83 6.83 0 0 0 5.828-3.258c1.966-3.214.963-7.414-2.244-9.38z" fill="rgba(0, 0, 0, 1)" stroke="none"/>
  <path d="M140.418 165.626a84.641 84.641 0 0 1-5.284-2.86c-3.251-1.906-7.434-.833-9.351 2.406a6.824 6.824 0 0 0 2.403 9.352 106.255 106.255 0 0 0 6.096 3.301 6.829 6.829 0 0 0 9.895-6.093 6.826 6.826 0 0 0-3.759-6.106z" fill="rgba(0, 0, 0, 1)" stroke="none"/>
  <path d="M119.675 150.131l-.469-.546c-.311-.36-.62-.72-.917-1.08a22.18 22.18 0 0 1-.683-.874c-2.231-3.04-6.501-3.7-9.537-1.48a6.831 6.831 0 0 0-1.483 9.54c.244.335.503.667.787 1.021a78.553 78.553 0 0 0 1.92 2.287 6.797 6.797 0 0 0 5.187 2.386 6.817 6.817 0 0 0 4.429-1.633 6.832 6.832 0 0 0 .766-9.621z" fill="rgba(0, 0, 0, 1)" stroke="none"/>
  <path d="M311.86 53.151l-13.483-7.786a6.82 6.82 0 0 0-9.327 2.5 6.83 6.83 0 0 0 2.5 9.327l7.571 4.372-65.466 113.388c-8.23 1.847-16.804 2.98-25.607 3.4l61.757-106.967a6.83 6.83 0 0 0-2.5-9.327c-3.277-1.893-7.441-.759-9.327 2.5l-67.704 117.267a6.83 6.83 0 0 0 5.752 10.24l1.493.046a69.32 69.32 0 0 0 2.864.073c13.609 0 26.846-1.56 39.335-4.634a6.803 6.803 0 0 0 4.284-3.214L314.36 62.478a6.83 6.83 0 0 0-2.5-9.327z" fill="rgba(0, 0, 0, 1)" stroke="none"/>
  <path d="M116.435 145.777l-.5-.773c-.319-.493-.65-.986-.923-1.493a6.815 6.815 0 0 0-9.243-2.787 6.812 6.812 0 0 0-3.599 6.026c0 1.087.261 2.186.811 3.214.454.846.985 1.674 1.524 2.5l.42.647a6.807 6.807 0 0 0 5.763 3.161 6.8 6.8 0 0 0 3.657-1.067 6.833 6.833 0 0 0 3.161-5.767 6.806 6.806 0 0 0-1.071-3.661z" fill="rgba(0, 0, 0, 1)" stroke="none"/>
  <path d="M296.607 129.031a6.82 6.82 0 0 0-7.834 5.647l-.234 1.161a6.547 6.547 0 0 0-.147 1.386c0 3.133 2.232 5.847 5.449 6.526.454.094.906.14 1.353.14 3.188 0 6.081-2.326 6.77-5.562.104-.486.207-.973.287-1.466a6.825 6.825 0 0 0-5.644-7.832z" fill="rgba(0, 0, 0, 1)" stroke="none"/>
  <path d="M114.033 141.304l-.454-1c-.15-.319-.311-.64-.427-.973-1.251-3.56-5.154-5.46-8.704-4.18a6.826 6.826 0 0 0-4.57 6.439c0 .753.128 1.512.387 2.26.266.754.597 1.493.94 2.227l.307.667a6.82 6.82 0 0 0 8.98 3.539 6.822 6.822 0 0 0 4.11-6.267 6.78 6.78 0 0 0-.569-2.712z" fill="rgba(0, 0, 0, 1)" stroke="none"/>
  <path d="M280.464 160.925c-2.186-3.067-6.446-3.773-9.523-1.594l-1.87 1.273a6.826 6.826 0 0 0-1.884 9.453 6.808 6.808 0 0 0 5.69 3.046c1.29 0 2.598-.367 3.755-1.125.756-.5 1.512-1.007 2.243-1.527a6.822 6.822 0 0 0 2.86-5.553 6.805 6.805 0 0 0-1.271-3.973z" fill="rgba(0, 0, 0, 1)" stroke="none"/>
  <path d="M112.443 136.617l-.427-1.56c-.654-3.707-4.183-6.134-7.897-5.533a6.825 6.825 0 0 0-5.547 7.907c.114.647.283 1.287.604 2.4a6.826 6.826 0 0 0 6.627 5.221c.532 0 1.073-.061 1.615-.195a6.822 6.822 0 0 0 5.025-8.24z" fill="rgba(0, 0, 0, 1)" stroke="none"/>
  <path d="M285.188 155.864l-5.361-4.246-.79.86a6.798 6.798 0 0 0-1.947 4.767 6.81 6.81 0 0 0 2.053 4.886 6.8 6.8 0 0 0 4.773 1.947 6.815 6.815 0 0 0 4.883-2.053c.42-.427.816-.867 1.463-1.594l-5.074-4.567z" fill="rgba(0, 0, 0, 1)" stroke="none"/>
  <path d="M301.087 140.838a6.83 6.83 0 0 0-4.683-6.473 6.81 6.81 0 0 0-8.627 4.333c-.01.027-.37 1.126-.377 1.147a6.78 6.78 0 0 0-.447 2.42 6.833 6.833 0 0 0 4.413 6.386 6.833 6.833 0 0 0 8.802-3.967c.167-.439.311-.879.451-1.319l-6.361-2.521 6.48 2.147a6.82 6.82 0 0 0 .349-2.153z" fill="rgba(0, 0, 0, 1)" stroke="none"/>
  <path d="M284.824 157.099c-2.316-2.895-6.786-3.193-9.733-.947a52.41 52.41 0 0 0-.667.521 6.328 6.328 0 0 0-2.357 4.946c0 1.519.524 3.065 1.567 4.379 1.306 1.654 3.299 2.487 5.323 2.487 1.55 0 3.116-.493 4.405-1.466l.819-.654c1.519-1.287 2.26-3.026 2.263-4.82 0-1.539-.546-3.113-1.62-4.446z" fill="rgba(0, 0, 0, 1)" stroke="none"/>
  <path d="M292.776 145.864c-3.074-2.186-7.34-1.48-9.52 1.601l-.927 1.207a6.585 6.585 0 0 0-1.399 4.053c0 2.026.94 4.033 2.69 5.4a6.65 6.65 0 0 0 4.11 1.393 7.088 7.088 0 0 0 5.567-2.7c.37-.48.737-.947 1.08-1.434a6.791 6.791 0 0 0 1.266-3.946 6.806 6.806 0 0 0-2.867-5.574z" fill="rgba(0, 0, 0, 1)" stroke="none"/>
  <path d="M294.809 141.111c-3.29-1.78-7.516-.381-9.327 2.893a6.604 6.604 0 0 0-.84 3.234c0 2.314 1.22 4.56 3.371 5.84 1.07.64 2.253.94 3.427.94a6.977 6.977 0 0 0 5.866-3.202c.106-.167.326-.532.416-.707a6.516 6.516 0 0 0 .763-3.046c-.004-2.405-1.364-4.706-3.676-5.952z" fill="rgba(0, 0, 0, 1)" stroke="none"/>
  <path d="M311.358 84.764L290.001 5.051a6.828 6.828 0 0 0-3.18-4.147 6.948 6.948 0 0 0-5.18-.679l-32.969 8.834a6.82 6.82 0 0 0-4.826 8.36l27.971 104.393a6.82 6.82 0 0 0 8.359 4.825 6.82 6.82 0 0 0 4.826-8.359l-26.204-97.801 19.784-5.299 19.591 73.12a6.813 6.813 0 0 0 8.359 4.826 6.824 6.824 0 0 0 4.826-8.36z" fill="rgba(0, 0, 0, 1)" stroke="none"/>
  <path d="M374.029 61.586a6.853 6.853 0 0 0-2.654-4.5l-27.261-20.54a6.826 6.826 0 0 0-9.561 1.347l-105.24 139.653a6.83 6.83 0 0 0-.29 7.799 6.828 6.828 0 0 0 7.216 2.974c36.85-8.132 61.814-27.626 65.941-50.746h13.693a6.826 6.826 0 0 0 5.453-2.72l51.396-68.207a6.847 6.847 0 0 0 1.307-5.06zm-61.563 62.33h-16.51a6.825 6.825 0 0 0-6.827 6.827c0 15.073-13.983 29.327-36.306 38.287L341.35 51.557l16.357 12.326-45.241 60.033z" fill="rgba(0, 0, 0, 1)" stroke="none"/>
  <path d="M355.573 126.098a6.813 6.813 0 0 0-5.001-2.179h-54.613a6.825 6.825 0 0 0-6.827 6.827c0 25.9-40.639 47.787-88.747 47.787s-88.747-21.886-88.747-47.787a6.826 6.826 0 0 0-6.827-6.827H50.199a6.83 6.83 0 0 0-6.811 7.326l20.48 279.893a6.828 6.828 0 0 0 6.81 6.327H330.09a6.835 6.835 0 0 0 6.813-6.327l20.48-279.893a6.82 6.82 0 0 0-1.81-5.147zm-31.83 277.713H77.022l-19.483-266.24h41.042c5.492 31.126 48.234 54.613 101.803 54.613s96.309-23.487 101.803-54.613h41.04l-19.484 266.24z" fill="rgba(0, 0, 0, 1)" stroke="none"/>
  <path d="M200.384 239.971c-33.877 0-61.44 27.559-61.44 61.44s27.563 61.44 61.44 61.44c33.876 0 61.44-27.559 61.44-61.44s-27.563-61.44-61.44-61.44zm0 109.227c-26.349 0-47.787-21.439-47.787-47.787s21.437-47.787 47.787-47.787 47.787 21.439 47.787 47.787-21.438 47.787-47.787 47.787z" fill="rgba(0, 0, 0, 1)" stroke="none"/>
</svg>
</g></svg></g></g>
<!-- /image 21976 -->

<!-- image 30691 -->
<g id="transformed-30691" data-image="30691" transform="translate(148.65, 99.74000000000001) rotate(0, 30, 30)"><g><svg version="1.1" width="60px" height="60px" viewBox="0 0 60 60"><g id="original-30691"><svg xmlns="http://www.w3.org/2000/svg" viewBox="0 0 512.003 512.003" xmlns:xlink="http://www.w3.org/1999/xlink" version="1.1" preserveAspectRatio="xMidYMid meet">
  <path d="M386.279 111.831c3.536 2.353 8.259 2.19 11.636-.38 3.181-2.421 4.598-6.666 3.568-10.517-1.104-4.129-4.846-7.163-9.113-7.394-4.247-.23-8.267 2.354-9.831 6.303-1.705 4.303-.151 9.438 3.74 11.988z" fill="rgba(0, 0, 0, 1)" stroke="none"/>
  <path d="M429.848 131.761c-3.338-4.399-9.609-5.264-14.011-1.923-4.399 3.337-5.261 9.61-1.923 14.011 39.529 52.112 61.093 113.87 62.589 179.033l-38.835 12.324c-4.112-29.492-10.702-56.996-19.635-81.911l-.002-.006c-9.099-25.404-20.867-48.756-34.98-69.41a.226.226 0 0 1-.013-.02c-47.371-69.326-122.763-111.476-224.21-125.394l12.371-38.384c65.514 1.462 127.636 22.738 180.094 61.755a9.958 9.958 0 0 0 5.96 1.977 9.989 9.989 0 0 0 8.032-4.033c3.296-4.432 2.375-10.695-2.057-13.992C305.364 22.749 236.45 0 163.942 0a10 10 0 0 0-9.518 6.933l-76.8 238.298-26.516 82.265-.049.16-33.998 105.49c-3.909 12.145-.734 25.316 8.286 34.375 9.111 9.149 22.434 12.405 34.772 8.488l146.18-46.393v40.064c0 22.72 18.271 41.698 40.729 42.307.395.011.79.017 1.184.017 11.026 0 21.391-4.196 29.295-11.89 8.12-7.903 12.593-18.477 12.593-29.773v-67.322l52.53-16.672V431.7c0 19.426 15.898 35.229 35.44 35.229 9.441 0 18.327-3.653 25.028-10.296 6.707-6.665 10.401-15.52 10.401-24.934v-67.844l76.112-24.152a9.999 9.999 0 0 0 6.976-9.531c0-72.242-23.078-140.852-66.739-198.411zm-59.205 69.603c10.08 15.716 18.775 33.018 25.935 51.604a28.855 28.855 0 0 1-13.719 3.461c-15.925 0-28.88-12.955-28.88-28.88 0-11.349 6.72-21.517 16.664-26.185zM103.375 311.96c-8.033 7.971-18.872 11.879-29.819 11.092l22.67-70.34a38.497 38.497 0 0 1 7.141 5.58c7.232 7.176 11.214 16.709 11.214 26.843-.001 10.128-3.98 19.655-11.206 26.825zM70.63 451.686c.143-15.604 12.881-28.257 28.519-28.257 9.317 0 17.881 4.594 23.145 11.862zm162.174-56.755c-14.619 14.509-38.406 14.508-53.025 0-7.058-7.003-10.943-16.308-10.943-26.2 0-9.894 3.886-19.198 10.943-26.202 7.31-7.254 16.911-10.881 26.513-10.881s19.203 3.627 26.513 10.881c7.057 7.003 10.943 16.309 10.943 26.202-.001 9.892-3.887 19.198-10.944 26.2zm167.669-47.922a10.001 10.001 0 0 0-6.974 9.531v75.16c0 4.047-1.598 7.863-4.49 10.738a15.44 15.44 0 0 1-10.939 4.491c-8.514 0-15.44-6.832-15.44-15.229v-59.02a10.003 10.003 0 0 0-13.026-9.531l-72.53 23.021a10 10 0 0 0-6.975 9.531v74.64c0 5.852-2.323 11.335-6.542 15.44-4.284 4.17-9.936 6.391-15.987 6.214-11.729-.318-21.271-10.328-21.271-22.315v-47.439a57.129 57.129 0 0 0 20.593-13.113v-.001c10.869-10.786 16.855-25.133 16.855-40.397 0-15.265-5.986-29.611-16.855-40.397-22.387-22.217-58.813-22.218-81.201-.001-10.87 10.786-16.855 25.134-16.855 40.398s5.985 29.611 16.855 40.397a57.324 57.324 0 0 0 11.397 8.777l-35.156 11.158c-8.322-15.477-24.719-25.631-42.783-25.631-26.754 0-48.52 21.767-48.52 48.521 0 1.892.109 3.772.325 5.636-4.218.404-8.335-1.063-11.435-4.177-3.771-3.788-5.05-9.072-3.421-14.133l31.203-96.817c3.019.471 6.045.705 9.057.705 15.168 0 29.926-5.913 41.105-17.007 11.038-10.954 17.117-25.523 17.117-41.022 0-15.505-6.082-30.08-17.126-41.039a58.567 58.567 0 0 0-14.983-10.763l50.123-155.522c92.169 11.962 161.537 47.925 206.497 107.028-15.118 8.474-25.113 24.716-25.113 42.711 0 26.952 21.928 48.88 48.88 48.88a48.858 48.858 0 0 0 20.373-4.442c6.763 21.378 11.821 44.622 15.087 69.354z" fill="rgba(0, 0, 0, 1)" stroke="none"/>
  <path d="M269.769 169.329c0-16.081-6.307-31.195-17.758-42.56-23.588-23.406-61.969-23.406-85.557 0-11.451 11.364-17.758 26.478-17.758 42.56 0 16.081 6.307 31.195 17.758 42.56 11.794 11.703 27.286 17.555 42.778 17.555s30.984-5.852 42.778-17.555c11.452-11.365 17.759-26.479 17.759-42.56zm-31.846 28.362c-15.82 15.699-41.561 15.699-57.381 0-7.64-7.58-11.846-17.652-11.846-28.362s4.206-20.782 11.846-28.362c7.91-7.85 18.3-11.774 28.69-11.774 10.391 0 20.78 3.925 28.69 11.774 7.64 7.58 11.846 17.652 11.846 28.362.001 10.71-4.205 20.782-11.845 28.362z" fill="rgba(0, 0, 0, 1)" stroke="none"/>
  <path d="M308.857 255.15c-20.34-21.006-54.085-21.444-75.224-.978a10.007 10.007 0 0 0-3.043 7.023 10.003 10.003 0 0 0 2.815 7.117l59.864 61.824a9.968 9.968 0 0 0 7.185 3.044 9.97 9.97 0 0 0 6.955-2.815c21.138-20.467 21.788-54.208 1.448-75.215zm-9.23 52.803l-43.844-45.279c12.65-6.379 28.436-4.217 38.705 6.389 10.271 10.606 11.922 26.453 5.139 38.89z" fill="rgba(0, 0, 0, 1)" stroke="none"/>
</svg>
</g></svg></g></g>
<!-- /image 30691 -->

<!-- image 13205 -->
<g id="transformed-13205" data-image="13205" transform="translate(89.98, 216.54) rotate(0, 30, 30)"><g><svg version="1.1" width="60px" height="60px" viewBox="0 0 60 60"><g id="original-13205"><svg xmlns="http://www.w3.org/2000/svg" viewBox="0 0 64 64" xmlns:xlink="http://www.w3.org/1999/xlink" version="1.1" preserveAspectRatio="xMidYMid meet">
  <path d="M56.978 54a14.975 14.975 0 0 1-22.584 1.605 22.54 22.54 0 0 1-6.034-13.128 11.255 11.255 0 0 0-6.826-9.629l-2.577-2.577a2.119 2.119 0 0 1-.2-2.87 2 2 0 0 1 2.9-.079 1 1 0 0 0 1.414-1.414 2 2 0 0 1 0-2.828 2.047 2.047 0 0 1 2.828 0 1 1 0 0 0 1.414-1.414 2 2 0 0 1 .079-2.9 2.121 2.121 0 0 1 2.87.2 1 1 0 1 0 1.414-1.414 4.091 4.091 0 0 0-5.622-.268 4 4 0 0 0-.759.958l-6.571-6.572a5.967 5.967 0 0 0-.855-8.239 5.986 5.986 0 0 0-9.564 2.713 5.789 5.789 0 0 0-.214 2.861 5.826 5.826 0 0 0-3.33 1.086A6.059 6.059 0 0 0 2 15.156a6 6 0 0 0 10.205 4.122l4.5 4.5a1 1 0 1 0 1.415-1.414l-5.27-5.271a1 1 0 0 0-1.536.146A4 4 0 0 1 4 15.1a4.077 4.077 0 0 1 1.9-3.369 3.441 3.441 0 0 1 3.357-.509 1 1 0 0 0 1.205-1.407 3.823 3.823 0 0 1-.262-3.044 4.026 4.026 0 0 1 3.1-2.713 3.987 3.987 0 0 1 3.369 6.892 1 1 0 0 0-.034 1.447l8.1 8.1a4.031 4.031 0 0 0-3.079 1.164 3.971 3.971 0 0 0-1.172 2.828c0 .084 0 .168.008.251a3.858 3.858 0 0 0-.356-.007 3.975 3.975 0 0 0-2.87 1.325 4.088 4.088 0 0 0 .267 5.622l2.577 2.577a1.938 1.938 0 0 0 .63.42 9.289 9.289 0 0 1 5.617 7.959 24.693 24.693 0 0 0 6.612 14.38 16.883 16.883 0 0 0 25.6-1.817 1 1 0 0 0-1.6-1.2z" fill="rgba(0, 0, 0, 1)" stroke="none"/>
  <path d="M57.021 32.979a24.348 24.348 0 0 0-14.38-6.613 9.288 9.288 0 0 1-7.959-5.616 1 1 0 0 0-1.85.76 11.279 11.279 0 0 0 9.645 6.85 22.535 22.535 0 0 1 13.129 6.034 14.958 14.958 0 0 1 3.245 16.361 1 1 0 0 0 .54 1.307 1.017 1.017 0 0 0 .383.076 1 1 0 0 0 .924-.617 16.952 16.952 0 0 0-3.677-18.542z" fill="rgba(0, 0, 0, 1)" stroke="none"/>
  <circle cx="40" cy="51" r="1" fill="rgba(0, 0, 0, 1)" stroke="none"/>
  <circle cx="36" cy="53" r="1" fill="rgba(0, 0, 0, 1)" stroke="none"/>
  <circle cx="51" cy="55" r="1" fill="rgba(0, 0, 0, 1)" stroke="none"/>
  <circle cx="49" cy="50" r="1" fill="rgba(0, 0, 0, 1)" stroke="none"/>
  <circle cx="55" cy="47" r="1" fill="rgba(0, 0, 0, 1)" stroke="none"/>
  <circle cx="40" cy="56" r="1" fill="rgba(0, 0, 0, 1)" stroke="none"/>
  <circle cx="46" cy="53" r="1" fill="rgba(0, 0, 0, 1)" stroke="none"/>
  <circle cx="55" cy="51" r="1" fill="rgba(0, 0, 0, 1)" stroke="none"/>
  <circle cx="44" cy="50" r="1" fill="rgba(0, 0, 0, 1)" stroke="none"/>
  <circle cx="38" cy="47" r="1" fill="rgba(0, 0, 0, 1)" stroke="none"/>
  <circle cx="46" cy="57" r="1" fill="rgba(0, 0, 0, 1)" stroke="none"/>
  <circle cx="34" cy="48" r="1" fill="rgba(0, 0, 0, 1)" stroke="none"/>
  <circle cx="30" cy="36" r="1" fill="rgba(0, 0, 0, 1)" stroke="none"/>
  <circle cx="32" cy="43" r="1" fill="rgba(0, 0, 0, 1)" stroke="none"/>
</svg>
</g></svg></g></g>
<!-- /image 13205 -->
</defs><rect x="0" y="0" width="250" height="250" fill="rgba(196, 63, 63, 0)"></rect><use xlink:href="#transformed-61935" transform="translate(-250, -250)"></use><use xlink:href="#transformed-61935" transform="translate(0, -250)"></use><use xlink:href="#transformed-61935" transform="translate(250, -250)"></use><use xlink:href="#transformed-61935" transform="translate(-250, 0)"></use><use xlink:href="#transformed-61935" transform="translate(0, 0)"></use><use xlink:href="#transformed-61935" transform="translate(250, 0)"></use><use xlink:href="#transformed-61935" transform="translate(-250, 250)"></use><use xlink:href="#transformed-61935" transform="translate(0, 250)"></use><use xlink:href="#transformed-61935" transform="translate(250, 250)"></use><use xlink:href="#transformed-21976" transform="translate(-250, -250)"></use><use xlink:href="#transformed-21976" transform="translate(0, -250)"></use><use xlink:href="#transformed-21976" transform="translate(250, -250)"></use><use xlink:href="#transformed-21976" transform="translate(-250, 0)"></use><use xlink:href="#transformed-21976" transform="translate(0, 0)"></use><use xlink:href="#transformed-21976" transform="translate(250, 0)"></use><use xlink:href="#transformed-21976" transform="translate(-250, 250)"></use><use xlink:href="#transformed-21976" transform="translate(0, 250)"></use><use xlink:href="#transformed-21976" transform="translate(250, 250)"></use><use xlink:href="#transformed-30691" transform="translate(-250, -250)"></use><use xlink:href="#transformed-30691" transform="translate(0, -250)"></use><use xlink:href="#transformed-30691" transform="translate(250, -250)"></use><use xlink:href="#transformed-30691" transform="translate(-250, 0)"></use><use xlink:href="#transformed-30691" transform="translate(0, 0)"></use><use xlink:href="#transformed-30691" transform="translate(250, 0)"></use><use xlink:href="#transformed-30691" transform="translate(-250, 250)"></use><use xlink:href="#transformed-30691" transform="translate(0, 250)"></use><use xlink:href="#transformed-30691" transform="translate(250, 250)"></use><use xlink:href="#transformed-13205" transform="translate(-250, -250)"></use><use xlink:href="#transformed-13205" transform="translate(0, -250)"></use><use xlink:href="#transformed-13205" transform="translate(250, -250)"></use><use xlink:href="#transformed-13205" transform="translate(-250, 0)"></use><use xlink:href="#transformed-13205" transform="translate(0, 0)"></use><use xlink:href="#transformed-13205" transform="translate(250, 0)"></use><use xlink:href="#transformed-13205" transform="translate(-250, 250)"></use><use xlink:href="#transformed-13205" transform="translate(0, 250)"></use><use xlink:href="#transformed-13205" transform="translate(250, 250)"></use></svg>